HIERARCHY
ROOT Hips
{
	OFFSET -3.958830 18.904000 13.208200
	CHANNELS 6 Xposition Yposition Zposition Zrotation Yrotation Xrotation 
	JOINT LHipJoint
	{
		OFFSET 0.000000 0.000000 0.000000
		CHANNELS 3 Zrotation Yrotation Xrotation
		JOINT LeftUpLeg
		{
			OFFSET 1.800000 -1.400000 0.085000
			CHANNELS 3 Zrotation Yrotation Xrotation
			JOINT LeftLeg
			{
				OFFSET 2.215000 -6.000000 0.000000
				CHANNELS 3 Zrotation Yrotation Xrotation
				JOINT LeftFoot
				{
					OFFSET 2.500000 -6.900000 0.000000
					CHANNELS 3 Zrotation Yrotation Xrotation
					JOINT LeftToeBase
					{
						OFFSET 0.200000 -0.500000 1.950000
						CHANNELS 3 Zrotation Yrotation Xrotation
						End Site
						{
							OFFSET 0.000000 0.000000 0.000000
						}
					}
				}
			}
		}
	}
	JOINT RHipJoint
	{
		OFFSET 0.000000 0.000000 0.000000
		CHANNELS 3 Zrotation Yrotation Xrotation
		JOINT RightUpLeg
		{
			OFFSET -1.800000 -1.400000 0.085000
			CHANNELS 3 Zrotation Yrotation Xrotation
			JOINT RightLeg
			{
				OFFSET -2.215000 -6.000000 0.000000
				CHANNELS 3 Zrotation Yrotation Xrotation
				JOINT RightFoot
				{
					OFFSET -2.500000 -6.900000 0.000000
					CHANNELS 3 Zrotation Yrotation Xrotation
					JOINT RightToeBase
					{
						OFFSET -0.200000 -0.500000 1.950000
						CHANNELS 3 Zrotation Yrotation Xrotation
						End Site
						{
							OFFSET 0.000000 0.000000 0.000000
						}
					}
				}
			}
		}
	}
	JOINT LowerBack
	{
		OFFSET 0.000000 0.000000 0.000000
		CHANNELS 3 Zrotation Yrotation Xrotation
		JOINT Spine
		{
			OFFSET -0.087000 1.940000 -0.288900
			CHANNELS 3 Zrotation Yrotation Xrotation
			JOINT Spine1
			{
				OFFSET 0.000000 1.950000 0.060000
				CHANNELS 3 Zrotation Yrotation Xrotation
				JOINT Neck
				{
					OFFSET 0.000000 0.000000 0.000000
					CHANNELS 3 Zrotation Yrotation Xrotation
					JOINT Neck1
					{
						OFFSET 0.000000 1.600000 0.340000
						CHANNELS 3 Zrotation Yrotation Xrotation
						JOINT Head
						{
							OFFSET 0.000000 1.667000 -0.240000
							CHANNELS 3 Zrotation Yrotation Xrotation
							End Site
							{
								OFFSET 0.000000 0.000000 0.000000
							}
						}
					}
				}
				JOINT LeftShoulder
				{
					OFFSET 0.000000 0.000000 0.000000
					CHANNELS 3 Zrotation Yrotation Xrotation
					JOINT LeftArm
					{
						OFFSET 2.700000 1.550000 -0.730000
						CHANNELS 3 Zrotation Yrotation Xrotation
						JOINT LeftForeArm
						{
							OFFSET 5.450000 0.000000 0.000000
							CHANNELS 3 Zrotation Yrotation Xrotation
							JOINT LeftHand
							{
								OFFSET 3.450000 0.000000 0.000000
								CHANNELS 3 Zrotation Yrotation Xrotation
								JOINT LeftHandIndex1
								{
									OFFSET 0.750000 0.000000 0.000000
									CHANNELS 3 Zrotation Yrotation Xrotation
									End Site
									{
										OFFSET 0.000000 0.000000 0.000000
									}
								}
							}
						}
					}
				}
				JOINT RightShoulder
				{
					OFFSET 0.000000 0.000000 0.000000
					CHANNELS 3 Zrotation Yrotation Xrotation
					JOINT RightArm
					{
						OFFSET -2.700000 1.550000 -0.730000
						CHANNELS 3 Zrotation Yrotation Xrotation
						JOINT RightForeArm
						{
							OFFSET -5.450000 0.000000 0.000000
							CHANNELS 3 Zrotation Yrotation Xrotation
							JOINT RightHand
							{
								OFFSET -3.450000 0.000000 0.000000
								CHANNELS 3 Zrotation Yrotation Xrotation
								JOINT RightHandIndex1
								{
									OFFSET -0.750000 0.000000 0.000000
									CHANNELS 3 Zrotation Yrotation Xrotation
									End Site
									{
										OFFSET 0.000000 0.000000 0.000000
									}
								}
							}
						}
					}
				}
			}
		}
	}
}
MOTION
Frames: 8
Frame Time: 0.016667
-2.387250 17.678530 3.898280 -49.977605 64.695748 -50.080982 -15.935401 11.708376 2.397101 22.653720 -0.014356 -26.349073 -7.280873 12.104486 32.688457 -0.042847 7.345959 1.720037 0.490950 0.185840 0.474480 18.018814 -6.444271 6.099988 -0.937552 31.869914 -64.443343 16.337539 -57.623028 112.155657 -5.687891 -23.883233 -1.751635 0.058340 -0.059030 0.124790 -4.642746 -1.312614 -10.547590 18.386941 -7.458685 43.473796 -9.437328 1.833346 1.914860 3.512264 2.278382 -14.602843 -1.438060 -10.456701 59.510642 19.911990 -15.691010 -21.178500 -20.964209 -27.474240 7.732568 -45.665680 -18.237936 -5.432903 -106.230634 -60.160992 59.515244 -3.418499 3.175990 0.821780 -0.366180 0.357790 0.119800 13.512575 28.680039 8.373526 32.635596 18.770787 -10.681364 106.497482 58.835563 52.415051 2.813019 -1.376509 -0.124520 0.259290 -0.150750 -0.106050 
-2.400730 17.597120 3.935840 -51.140288 66.642000 -52.438221 -15.953380 11.728580 2.552487 22.168526 0.076641 -27.710697 -7.149829 13.126436 36.172404 0.059095 7.885323 1.500442 0.524420 0.238490 0.497800 17.990892 -6.362805 6.061329 -0.669910 32.822374 -63.898785 15.826776 -58.742560 114.087898 -5.810957 -24.215612 -1.787366 0.073300 -0.105290 0.120980 -4.412654 -1.466904 -10.590411 16.859171 -6.351480 45.299834 -8.284363 2.671358 0.397057 3.275895 2.257406 -14.874179 -0.983720 -10.820548 61.412692 20.863760 -15.733570 -22.247650 -22.755990 -26.518519 7.533856 -46.802586 -13.323090 -8.133863 -96.470646 -54.190792 44.997894 -3.289524 3.266088 0.852170 -0.405080 0.404240 0.109840 15.854399 28.631149 8.676294 35.491354 16.562204 -11.807893 92.757032 55.275271 38.286841 2.663198 -1.539392 -0.100351 0.256860 -0.164290 -0.108150 
-2.418380 17.498710 3.983330 -54.086787 69.021741 -56.020443 -15.950993 11.752071 2.728722 21.320557 -0.131371 -29.544464 -6.672170 13.786095 39.222418 0.148117 8.307576 1.347557 0.551300 0.269230 0.507240 17.975231 -6.261668 6.030946 -1.729867 32.836009 -64.381051 15.678169 -60.526038 115.751082 -5.948493 -24.642538 -1.832008 0.079510 -0.130570 0.124610 -4.133622 -1.732273 -10.617023 15.407297 -5.263328 46.301684 -6.391116 3.113070 -0.783203 2.915179 1.792456 -14.832518 -1.576814 -10.940987 62.234372 21.522750 -16.347150 -22.993670 -23.241500 -25.006784 7.417721 -48.643269 -8.865444 -10.614064 -88.149925 -50.177209 35.052605 -3.201274 3.274533 0.873300 -0.435080 0.433900 0.119210 17.202647 28.142087 8.560987 36.907656 14.488407 -12.805565 83.493183 50.342273 28.811776 2.544068 -1.601882 -0.082070 0.251140 -0.180320 -0.101400 
-2.429130 17.432000 4.039680 -57.361456 70.975460 -60.221041 -15.944951 11.843682 2.760277 20.456966 -0.091023 -30.375084 -5.715305 14.027753 41.412848 0.202757 8.518682 1.252172 0.606180 0.329980 0.557330 17.978028 -6.178877 6.048305 -2.025796 32.946363 -63.682470 14.711654 -60.441392 117.123392 -5.998675 -24.714596 -1.862073 0.102590 -0.196360 0.130010 -3.889019 -1.930992 -10.600244 14.163641 -4.064133 47.693135 -4.688457 3.658707 -1.535833 2.554313 1.779896 -14.696971 -1.067706 -11.591560 62.851845 22.286970 -16.284400 -24.697320 -23.255418 -23.453729 7.181362 -49.490053 -5.325894 -12.374356 -84.522339 -46.061217 28.955536 -3.119997 3.291180 0.906260 -0.487640 0.487270 0.117590 18.044394 27.234700 8.487964 38.781661 12.450406 -13.879167 78.352574 47.490426 23.880541 2.507082 -1.618352 -0.054500 0.227150 -0.215580 -0.109730 
-2.446690 17.388530 4.094390 -61.731439 72.734344 -65.318127 -15.923154 11.933410 2.736821 19.419445 -0.102576 -31.114266 -4.481991 13.874038 42.982595 0.239868 8.574418 1.213700 0.628500 0.381000 0.565810 18.005870 -6.099008 6.082837 -2.869549 32.423455 -62.911436 14.479472 -60.061478 117.234844 -5.984293 -24.591870 -1.858707 0.115820 -0.229940 0.143190 -3.759093 -1.889942 -10.562996 13.489752 -3.180360 48.954312 -3.858476 4.000054 -1.990212 2.198349 2.376018 -14.150729 0.797483 -12.890546 62.051389 23.210140 -15.903900 -26.232080 -22.718709 -21.457760 6.924249 -49.051209 -2.425392 -13.274499 -84.588495 -43.487342 26.767475 -3.094604 3.314682 0.908480 -0.504790 0.524050 0.113320 18.184084 25.226998 8.002153 40.986262 11.142013 -14.424479 76.073361 46.267647 21.864142 2.506459 -1.621202 -0.022660 0.204110 -0.231200 -0.103030 
-2.448870 17.367770 4.146440 -64.838222 73.933466 -69.627321 -15.893752 12.107790 2.629469 18.735441 0.106155 -30.648228 -3.379726 13.634304 43.903945 0.244532 8.609118 1.204095 0.612730 0.360160 0.554210 18.041195 -6.044793 6.159148 -3.515413 31.363312 -60.322512 15.257899 -58.499172 115.108494 -5.818115 -23.957740 -1.800071 0.107200 -0.220510 0.143830 -3.585763 -2.084922 -10.491387 12.690982 -2.239133 50.747618 -2.791576 4.430922 -2.710152 1.814013 2.361093 -13.485279 0.901321 -13.272423 61.832908 24.010850 -16.099990 -26.672670 -22.921900 -19.047881 6.582717 -47.345073 0.886169 -13.789219 -87.072308 -41.832414 26.637978 -3.089856 3.319621 0.921980 -0.505640 0.521820 0.106940 19.223601 23.196495 7.315247 40.615505 9.694342 -14.336329 74.776392 43.208504 19.614446 2.484166 -1.610296 -0.034410 0.207910 -0.216910 -0.105720 
-2.468710 17.376680 4.173580 -70.014409 74.246630 -75.569315 -15.812005 12.234528 2.537381 18.610901 0.625654 -30.537492 -2.284998 13.218458 43.891072 0.248090 8.489957 1.249475 0.576350 0.340260 0.527660 18.131221 -6.011069 6.209651 -4.593666 30.497879 -58.307866 14.871783 -57.210712 114.386539 -5.696681 -23.580414 -1.748841 0.089730 -0.210940 0.130970 -3.466131 -2.182350 -10.438922 13.681801 -2.191540 52.311724 -2.505894 4.741193 -2.813314 1.702980 2.631453 -13.190429 1.580880 -13.834310 60.488649 23.714380 -16.384980 -26.202750 -22.671396 -17.410462 6.576993 -45.326982 4.019677 -14.251613 -90.622289 -40.903217 27.557610 -3.096035 3.327144 0.890800 -0.486350 0.504860 0.096720 19.105974 21.566489 7.126447 39.391449 7.849714 -14.581331 76.317868 43.862354 20.790535 2.488505 -1.612998 -0.033080 0.205240 -0.208740 -0.098240 
-2.503150 17.405070 4.206460 -74.021232 74.914573 -79.577800 -15.750822 12.386978 2.433113 17.352619 0.767649 -30.876987 -0.911576 12.346832 43.321157 0.215300 8.181783 1.373573 0.521960 0.283310 0.487680 18.190101 -6.014052 6.262436 -6.130678 29.328824 -56.587593 14.311960 -55.783350 113.925322 -5.555416 -23.190006 -1.704669 0.055090 -0.179130 0.129550 -3.428708 -2.124709 -10.363026 14.118487 -1.710293 52.777659 -2.114695 5.019424 -2.266543 1.396324 2.904474 -12.906593 2.018277 -14.085673 58.524063 23.756400 -16.936530 -25.224810 -21.427251 -15.859920 6.577820 -44.115170 5.986468 -14.542191 -91.837812 -41.422527 28.756318 -3.114240 3.339835 0.858350 -0.457260 0.471520 0.088480 18.403638 19.751654 7.057692 38.504351 6.013503 -14.805574 80.174839 46.570962 24.474324 2.520372 -1.627792 -0.040460 0.196320 -0.187700 -0.088120 
